<svg width="46" height="53" viewBox="0 0 46 53" fill="none" xmlns="http://www.w3.org/2000/svg">
<path opacity="0.3" d="M3.06332 39.5245C3.65486 37.5308 6.67828 31.9002 10.9492 29.1367L10.4125 39.8608C10.3729 40.2616 10.3151 40.659 10.2402 41.0487C9.05451 47.2496 4.39658 51.005 1 53C1.2887 49.7559 2.25269 44.4321 3.06332 39.5245Z" fill="#1B558D"/>
<g opacity="0.6">
<path d="M4.33847 32.1573C4.33821 32.1586 4.33821 32.16 4.33821 32.1613L4.33929 32.1548C4.39714 31.8373 4.455 31.5241 4.515 31.2163C5.7375 24.8897 9.11143 20.8235 15.435 19.0188L33.7066 13.8006C32.258 17.5257 29.2002 22.4598 24.5119 24.6688C24.1639 24.8316 23.8071 24.9816 23.4418 25.1133L14.6942 27.3455C13.3584 27.7183 12.0758 28.3599 10.8712 29.1964C7.44626 31.5758 4.65509 35.5401 3.08351 39.4598C3.45436 37.1779 3.87227 34.7171 4.33714 32.1613L4.33847 32.1573Z" fill="#1B558D"/>
<path d="M4.33847 32.1573C4.33862 32.1565 4.33888 32.1557 4.33929 32.1548L4.33847 32.1573Z" fill="#1B558D"/>
</g>
<path d="M4.33821 32.1613C4.33821 32.1592 4.33821 32.157 4.33929 32.1548L4.33821 32.1613ZM4.515 31.2163C5.7375 24.8897 9.11143 20.8235 15.435 19.0188L35.2318 13.365C35.5961 13.2311 35.9518 13.0799 36.2989 12.9125C41.7911 10.2719 44.9671 3.79836 46 0L8.01429 11.0938C5.98821 11.8865 0.158571 13.6058 0 22.2437L1 53C1.32571 51.4329 2.44071 42.5876 4.33714 32.1613L4.33929 32.1548C4.39714 31.8373 4.455 31.5241 4.515 31.2163Z" fill="#1B558D"/>
</svg>
